<svg xmlns="http://www.w3.org/2000/svg" width="21" height="21" fill="none"><g clip-path="url(#a)"><path d="M19.661 6.85c-.444-1.034-1.344-2.15-2.049-2.503a10 10 0 0 1 1.034 3l.002.017c-1.155-2.786-3.112-3.911-4.711-6.358l-.241-.379-.113-.204a1.8 1.8 0 0 1-.152-.392c-.011-.022-.017-.025-.023-.026-.021 0-.023.002-.024.003l-.003-.003C10.816 1.46 9.945 4.152 9.866 5.499a5.2 5.2 0 0 0-2.811 1.049 3 3 0 0 0-.263-.193 4.44 4.44 0 0 1-.029-2.417 7.5 7.5 0 0 0-2.458 1.84H4.3c-.405-.497-.376-2.135-.353-2.477a2 2 0 0 0-.341.175 7.4 7.4 0 0 0-.998.828q-.526.516-.955 1.109v.002-.002a8.2 8.2 0 0 0-1.37 2.995l-.014.065c-.019.087-.089.523-.1.617l-.002.022A9 9 0 0 0 0 10.475v.051c.005 2.474.967 4.857 2.697 6.678s4.103 2.948 6.649 3.158a10.45 10.45 0 0 0 7.105-2.023c2.023-1.511 3.388-3.702 3.825-6.14l.046-.383a9.9 9.9 0 0 0-.662-4.967l.001.002zm-11.77 7.741.141.067.007.004zm10.758-7.224v-.009l.002.01z" fill="url(#b)"/><use href="#c" fill="url(#d)"/><use href="#c" fill="url(#e)"/><path d="m14.697 8.011.064.045a5.4 5.4 0 0 0-.949-1.198C10.637 3.784 12.98.194 13.375.01l.004-.006C10.814 1.458 9.943 4.15 9.864 5.497l.359-.018a5.3 5.3 0 0 1 2.589.681 5.07 5.07 0 0 1 1.885 1.849z" fill="url(#f)"/><use href="#g" fill="url(#h)"/><use href="#g" fill="url(#i)"/><path d="m6.576 6.22.211.135a4.44 4.44 0 0 1-.029-2.417A7.5 7.5 0 0 0 4.3 5.778c.05-.001 1.531-.027 2.276.442" fill="url(#j)"/><path d="M.093 10.761c.788 4.508 5.009 7.952 9.799 8.083 4.434.121 7.267-2.371 8.437-4.802a8.7 8.7 0 0 0 .318-6.674v-.009l.002.007c.362 2.29-.841 4.508-2.722 6.011l-.006.013c-3.665 2.891-7.172 1.744-7.881 1.276l-.149-.072c-2.137-.989-3.02-2.873-2.83-4.49-.507.007-1.006-.128-1.435-.39s-.771-.638-.984-1.084A3.9 3.9 0 0 1 4.5 8.084a3.96 3.96 0 0 1 1.897.4 5.24 5.24 0 0 0 3.834.146c-.004-.08-1.781-.765-2.474-1.426-.37-.353-.546-.524-.702-.651a3 3 0 0 0-.263-.193l-.211-.135c-.745-.469-2.226-.443-2.275-.442h-.005c-.405-.497-.376-2.135-.353-2.477a2 2 0 0 0-.341.175 7.4 7.4 0 0 0-.998.828 8.6 8.6 0 0 0-.959 1.107A8.2 8.2 0 0 0 .28 8.409c-.005.02-.368 1.556-.189 2.353h.002z" fill="url(#k)"/><path d="M13.812 6.858c.373.355.692.758.948 1.199l.153.121c2.315 2.067 1.102 4.988 1.012 5.195 1.881-1.5 3.083-3.72 2.722-6.011-1.155-2.789-3.114-3.914-4.711-6.361l-.241-.379-.113-.204a1.8 1.8 0 0 1-.152-.392c-.011-.022-.017-.025-.023-.026-.021 0-.023.002-.024.003-.402.185-2.745 3.777.43 6.849l-.001.004z" fill="url(#l)"/><path d="M14.913 8.179a2 2 0 0 0-.153-.121l-.063-.045a3.6 3.6 0 0 0-2.462-.579c3.673 1.778 2.688 7.902-2.403 7.672a4.7 4.7 0 0 1-1.329-.248l-.3-.119-.172-.08.007.004c.71.469 4.216 1.616 7.881-1.276l.006-.013c.091-.207 1.305-3.128-1.012-5.195" fill="url(#m)"/><path d="M5.625 11.419S6.096 9.718 9 9.718c.314 0 1.212-.848 1.228-1.094a5.24 5.24 0 0 1-3.834-.146 3.96 3.96 0 0 0-1.897-.4 3.96 3.96 0 0 0-1.858.546c.213.446.555.822.984 1.084s.928.397 1.435.39c-.189 1.617.694 3.5 2.83 4.49l.141.067c-1.247-.624-2.277-1.804-2.405-3.235z" fill="url(#n)"/><path d="M19.661 6.845c-.444-1.034-1.344-2.15-2.049-2.503a10 10 0 0 1 1.034 3l.002.017c-1.155-2.786-3.112-3.911-4.711-6.358l-.241-.379-.112-.204a1.8 1.8 0 0 1-.152-.392c-.011-.022-.017-.025-.023-.026-.02 0-.023.002-.024.003L13.382 0c-2.565 1.454-3.436 4.146-3.515 5.493l.359-.018a5.3 5.3 0 0 1 2.589.681A5.07 5.07 0 0 1 14.7 8.005a3.6 3.6 0 0 0-2.462-.579c3.673 1.778 2.688 7.902-2.403 7.672a4.7 4.7 0 0 1-1.329-.248l-.3-.119-.172-.08.007.004-.149-.072.141.067c-1.247-.624-2.277-1.804-2.405-3.235 0 0 .471-1.701 3.375-1.701.314 0 1.212-.848 1.228-1.094-.004-.08-1.781-.765-2.474-1.426l-.702-.651a3 3 0 0 0-.263-.193 4.44 4.44 0 0 1-.029-2.417 7.5 7.5 0 0 0-2.458 1.84H4.3c-.405-.497-.376-2.135-.353-2.477a2 2 0 0 0-.341.175 7.4 7.4 0 0 0-.998.828q-.526.516-.955 1.109a8.2 8.2 0 0 0-1.37 2.995l-.014.065-.118.624A11 11 0 0 0 0 10.473v.051c.005 2.474.967 4.857 2.697 6.678S6.8 20.15 9.347 20.36a10.45 10.45 0 0 0 7.105-2.023c2.023-1.511 3.388-3.702 3.825-6.14l.046-.383a9.9 9.9 0 0 0-.662-4.967l.001-.001z" fill="url(#o)"/></g><defs><radialGradient id="d" cx="0" cy="0" r="1" gradientTransform="matrix(21.2899 0 0 20.6149 17.653 2.3)" href="#p"><stop offset=".129" stop-color="#ffbd4f"/><stop offset=".186" stop-color="#ffac31"/><stop offset=".247" stop-color="#ff9d17"/><stop offset=".283" stop-color="#ff980e"/><stop offset=".403" stop-color="#ff563b"/><stop offset=".467" stop-color="#ff3750"/><stop offset=".71" stop-color="#f5156c"/><stop offset=".782" stop-color="#eb0878"/><stop offset=".86" stop-color="#e50080"/></radialGradient><radialGradient id="e" cx="0" cy="0" r="1" gradientTransform="matrix(21.2899 0 0 20.6149 9.749 10.72)" href="#p"><stop offset=".3" stop-color="#960e18"/><stop offset=".351" stop-color="#b11927" stop-opacity=".74"/><stop offset=".435" stop-color="#db293d" stop-opacity=".343"/><stop offset=".497" stop-color="#f5334b" stop-opacity=".094"/><stop offset=".53" stop-color="#ff3750" stop-opacity="0"/></radialGradient><radialGradient id="f" cx="0" cy="0" r="1" gradientTransform="matrix(15.422 0 0 14.9331 12.383 -2.292)" href="#p"><stop offset=".132" stop-color="#fff44f"/><stop offset=".252" stop-color="#ffdc3e"/><stop offset=".506" stop-color="#ff9d12"/><stop offset=".526" stop-color="#ff980e"/></radialGradient><radialGradient id="h" cx="0" cy="0" r="1" gradientTransform="matrix(10.1364 0 0 9.81506 7.377 16.078)" href="#p"><stop offset=".353" stop-color="#3a8ee6"/><stop offset=".472" stop-color="#5c79f0"/><stop offset=".669" stop-color="#9059ff"/><stop offset="1" stop-color="#c139e6"/></radialGradient><radialGradient id="i" cx="0" cy="0" r="1" gradientTransform="matrix(5.22467 -1.22312 1.39136 5.94334 10.778 8.95)" href="#p"><stop offset=".206" stop-color="#9059ff" stop-opacity="0"/><stop offset=".278" stop-color="#8c4ff3" stop-opacity=".064"/><stop offset=".747" stop-color="#7716a8" stop-opacity=".45"/><stop offset=".975" stop-color="#6e008b" stop-opacity=".6"/></radialGradient><radialGradient id="j" cx="0" cy="0" r="1" gradientTransform="matrix(7.29338 0 0 7.06215 9.485 1.535)" href="#p"><stop stop-color="#ffe226"/><stop offset=".121" stop-color="#ffdb27"/><stop offset=".295" stop-color="#ffc82a"/><stop offset=".502" stop-color="#ffa930"/><stop offset=".732" stop-color="#ff7e37"/><stop offset=".792" stop-color="#ff7139"/></radialGradient><radialGradient id="k" cx="0" cy="0" r="1" gradientTransform="matrix(31.1181 0 0 30.1315 15.282 -3.057)" href="#p"><stop offset=".113" stop-color="#fff44f"/><stop offset=".456" stop-color="#ff980e"/><stop offset=".622" stop-color="#ff5634"/><stop offset=".716" stop-color="#ff3647"/><stop offset=".904" stop-color="#e31587"/></radialGradient><radialGradient id="l" cx="0" cy="0" r="1" gradientTransform="matrix(2.39314 21.95888 -14.87234 1.62083 12.695 -1.386)" href="#p"><stop stop-color="#fff44f"/><stop offset=".06" stop-color="#ffe847"/><stop offset=".168" stop-color="#ffc830"/><stop offset=".304" stop-color="#ff980e"/><stop offset=".356" stop-color="#ff8b16"/><stop offset=".455" stop-color="#ff672a"/><stop offset=".57" stop-color="#ff3647"/><stop offset=".737" stop-color="#e31587"/></radialGradient><radialGradient id="m" cx="0" cy="0" r="1" gradientTransform="matrix(19.4244 0 0 18.8086 9.485 4.087)" href="#p"><stop offset=".137" stop-color="#fff44f"/><stop offset=".48" stop-color="#ff980e"/><stop offset=".592" stop-color="#ff5634"/><stop offset=".655" stop-color="#ff3647"/><stop offset=".904" stop-color="#e31587"/></radialGradient><radialGradient id="n" cx="0" cy="0" r="1" gradientTransform="matrix(21.2609 0 0 20.5869 14.491 5.107)" href="#p"><stop offset=".094" stop-color="#fff44f"/><stop offset=".231" stop-color="#ffe141"/><stop offset=".509" stop-color="#ffaf1e"/><stop offset=".626" stop-color="#ff980e"/></radialGradient><linearGradient id="b" x1="18.309" y1="3.165" x2="1.883" y2="19.533" href="#p"><stop offset=".048" stop-color="#fff44f"/><stop offset=".111" stop-color="#ffe847"/><stop offset=".225" stop-color="#ffc830"/><stop offset=".368" stop-color="#ff980e"/><stop offset=".401" stop-color="#ff8b16"/><stop offset=".462" stop-color="#ff672a"/><stop offset=".534" stop-color="#ff3647"/><stop offset=".705" stop-color="#e31587"/></linearGradient><linearGradient id="o" x1="18.103" y1="3.076" x2="4.144" y2="17.494" href="#p"><stop offset=".167" stop-color="#fff44f" stop-opacity=".8"/><stop offset=".266" stop-color="#fff44f" stop-opacity=".634"/><stop offset=".489" stop-color="#fff44f" stop-opacity=".217"/><stop offset=".6" stop-color="#fff44f" stop-opacity="0"/></linearGradient><linearGradient id="p" gradientUnits="userSpaceOnUse"/><path id="c" d="M19.661 6.85c-.444-1.034-1.344-2.15-2.049-2.503a10 10 0 0 1 1.034 3v.009l.002.01a8.7 8.7 0 0 1-.318 6.674c-1.17 2.432-4.002 4.924-8.437 4.802-4.79-.131-9.011-3.574-9.799-8.083-.144-.711 0-1.072.072-1.649a7 7 0 0 0-.164 1.364v.051c.005 2.474.967 4.857 2.697 6.678s4.103 2.948 6.649 3.158a10.45 10.45 0 0 0 7.105-2.023c2.023-1.511 3.388-3.702 3.825-6.14l.046-.383a9.87 9.87 0 0 0-.663-4.968l-.001.001z"/><path id="g" d="M10.228 8.626C10.211 8.872 9.314 9.72 9 9.72c-2.904 0-3.375 1.701-3.375 1.701.129 1.432 1.159 2.613 2.405 3.235l.172.08.3.119c.428.146.876.23 1.329.248 5.091.231 6.076-5.894 2.403-7.672a3.6 3.6 0 0 1 2.462.579c-.449-.767-1.099-1.405-1.885-1.849s-1.679-.679-2.589-.681l-.359.018a5.2 5.2 0 0 0-2.811 1.049c.156.128.331.298.702.651.693.661 2.47 1.346 2.474 1.426z"/><clipPath id="a"><path fill="#fff" d="M0 0h20.4v20.4H0z"/></clipPath></defs></svg>